<mxfile host="app.diagrams.net" modified="2024-01-19T02:47:20.745Z" agent="Mozilla/5.0 (Macintosh; Intel Mac OS X 10_15_7) AppleWebKit/537.36 (KHTML, like Gecko) Chrome/120.0.0.0 Safari/537.36" version="22.1.18" etag="SoHnLm5IENX5XwfAQo3t" type="github">
  <diagram name="第 1 页" id="TmWcDYK_UgiakPwoPVKv">
    <mxGraphModel>
      <root>
        <mxCell id="0" />
        <mxCell id="1" parent="0" />
      </root>
    </mxGraphModel>
  </diagram>
</mxfile>
